<svg width="78" height="81" viewBox="0 0 78 81" fill="none" xmlns="http://www.w3.org/2000/svg">
<path d="M64.0156 34.7272H14.031C12.2766 34.7272 10.8494 33.3091 10.8494 31.5656V22.0936C10.8494 20.3501 12.2766 18.9314 14.031 18.9314H64.0149C65.7687 18.9314 67.1953 20.3501 67.1953 22.0936V31.5662C67.1959 33.3091 65.7693 34.7272 64.0156 34.7272ZM14.031 21.3545C13.6276 21.3545 13.2869 21.6932 13.2869 22.0936V31.5662C13.2869 31.9733 13.6208 32.3047 14.031 32.3047H64.0149C64.4244 32.3047 64.7578 31.9733 64.7578 31.5662V22.0936C64.7578 21.6926 64.4171 21.3545 64.0149 21.3545H14.031Z" fill="white"/>
<path d="M57.0447 67.1768H20.999C17.6218 67.1768 14.8741 64.4459 14.8741 61.0881V33.5158C14.8741 32.847 15.4201 32.3042 16.0929 32.3042C16.7656 32.3042 17.3116 32.847 17.3116 33.5158V61.0881C17.3116 63.1096 18.9661 64.7537 20.999 64.7537H57.0447C59.077 64.7537 60.7308 63.1096 60.7308 61.0881V33.5158C60.7308 32.847 61.2768 32.3042 61.9496 32.3042C62.6223 32.3042 63.1683 32.847 63.1683 33.5158V61.0881C63.1683 64.4459 60.4213 67.1768 57.0447 67.1768Z" fill="white"/>
<path d="M39.0225 67.1768C38.3498 67.1768 37.8038 66.6346 37.8038 65.9652V33.5158C37.8038 32.847 38.3498 32.3042 39.0225 32.3042C39.6953 32.3042 40.2413 32.847 40.2413 33.5158V65.9646C40.2413 66.6346 39.6959 67.1768 39.0225 67.1768Z" fill="white"/>
<path d="M23.8113 21.3503C19.9966 19.2955 18.5731 14.5389 20.6383 10.7461C22.7022 6.95506 27.4864 5.53934 31.303 7.59053C37.117 10.7212 40.2565 19.4554 40.3869 19.8256L38.0877 20.6294C38.0585 20.5471 35.1256 12.4047 30.1433 9.72168C27.5078 8.30535 24.2062 9.28309 22.7821 11.8995C21.3567 14.5183 22.339 17.8016 24.9734 19.2198L23.8113 21.3503Z" fill="white"/>
<path d="M54.2313 21.3503L53.071 19.2192C54.3477 18.5316 55.2782 17.3921 55.6926 16.0103C56.1063 14.6279 55.9534 13.168 55.2617 11.9001C54.5719 10.6309 53.4263 9.70652 52.0363 9.29519C50.6457 8.88386 49.1783 9.03531 47.9023 9.72166C42.9201 12.4041 39.9871 20.5464 39.9579 20.6288L37.6587 19.8249C37.7891 19.4548 40.928 10.7206 46.7421 7.59051C48.5897 6.59581 50.7182 6.37652 52.7316 6.97261C54.7468 7.5681 56.4061 8.9087 57.4061 10.746C58.4073 12.5828 58.6285 14.6976 58.0289 16.7009C57.4287 18.7036 56.0801 20.3544 54.2313 21.3503Z" fill="white"/>
<path d="M61.9496 50.9514H16.0929C15.4201 50.9514 14.8741 50.4089 14.8741 49.7404C14.8741 49.0719 15.4201 48.5293 16.0929 48.5293H61.9496C62.6223 48.5293 63.1683 49.0719 63.1683 49.7404C63.1683 50.4089 62.6229 50.9514 61.9496 50.9514Z" fill="white"/>
</svg>
